<svg width="385" height="145" viewBox="0 0 385 145" fill="none" xmlns="http://www.w3.org/2000/svg">
<mask id="path-1-outside-1_162_944" maskUnits="userSpaceOnUse" x="-1" y="-1" width="387" height="147" fill="black">
<rect fill="white" x="-1" y="-1" width="387" height="147"/>
<path d="M95.0156 58.7227V81.5742H20.7969V58.7227H95.0156ZM29.4883 0.8125V143H0.191406V0.8125H29.4883ZM115.914 0.8125V143H86.7148V0.8125H115.914ZM135.152 91.2422V89.1914C135.152 81.444 136.259 74.3151 138.473 67.8047C140.686 61.2292 143.909 55.5326 148.141 50.7148C152.372 45.8971 157.581 42.1536 163.766 39.4844C169.951 36.75 177.047 35.3828 185.055 35.3828C193.062 35.3828 200.191 36.75 206.441 39.4844C212.691 42.1536 217.932 45.8971 222.164 50.7148C226.461 55.5326 229.716 61.2292 231.93 67.8047C234.143 74.3151 235.25 81.444 235.25 89.1914V91.2422C235.25 98.9245 234.143 106.053 231.93 112.629C229.716 119.139 226.461 124.836 222.164 129.719C217.932 134.536 212.724 138.28 206.539 140.949C200.354 143.618 193.258 144.953 185.25 144.953C177.242 144.953 170.113 143.618 163.863 140.949C157.678 138.28 152.438 134.536 148.141 129.719C143.909 124.836 140.686 119.139 138.473 112.629C136.259 106.053 135.152 98.9245 135.152 91.2422ZM163.277 89.1914V91.2422C163.277 95.6693 163.668 99.8034 164.449 103.645C165.23 107.486 166.467 110.871 168.16 113.801C169.918 116.665 172.197 118.911 174.996 120.539C177.796 122.167 181.214 122.98 185.25 122.98C189.156 122.98 192.509 122.167 195.309 120.539C198.108 118.911 200.354 116.665 202.047 113.801C203.74 110.871 204.977 107.486 205.758 103.645C206.604 99.8034 207.027 95.6693 207.027 91.2422V89.1914C207.027 84.8945 206.604 80.8581 205.758 77.082C204.977 73.2409 203.707 69.8555 201.949 66.9258C200.257 63.931 198.01 61.5872 195.211 59.8945C192.411 58.2018 189.026 57.3555 185.055 57.3555C181.083 57.3555 177.698 58.2018 174.898 59.8945C172.164 61.5872 169.918 63.931 168.16 66.9258C166.467 69.8555 165.23 73.2409 164.449 77.082C163.668 80.8581 163.277 84.8945 163.277 89.1914ZM286.91 122.492L310.348 37.3359H339.742L304.098 143H286.324L286.91 122.492ZM270.797 37.3359L294.332 122.59L294.82 143H276.949L241.305 37.3359H270.797ZM384.078 0.8125L380.855 99.543H357.418L354.098 0.8125H384.078ZM353.316 130.109C353.316 125.943 354.749 122.492 357.613 119.758C360.543 116.958 364.384 115.559 369.137 115.559C373.954 115.559 377.796 116.958 380.66 119.758C383.525 122.492 384.957 125.943 384.957 130.109C384.957 134.146 383.525 137.564 380.66 140.363C377.796 143.163 373.954 144.562 369.137 144.562C364.384 144.562 360.543 143.163 357.613 140.363C354.749 137.564 353.316 134.146 353.316 130.109Z"/>
</mask>
<path d="M95.0156 58.7227V81.5742H20.7969V58.7227H95.0156ZM29.4883 0.8125V143H0.191406V0.8125H29.4883ZM115.914 0.8125V143H86.7148V0.8125H115.914ZM135.152 91.2422V89.1914C135.152 81.444 136.259 74.3151 138.473 67.8047C140.686 61.2292 143.909 55.5326 148.141 50.7148C152.372 45.8971 157.581 42.1536 163.766 39.4844C169.951 36.75 177.047 35.3828 185.055 35.3828C193.062 35.3828 200.191 36.75 206.441 39.4844C212.691 42.1536 217.932 45.8971 222.164 50.7148C226.461 55.5326 229.716 61.2292 231.93 67.8047C234.143 74.3151 235.25 81.444 235.25 89.1914V91.2422C235.25 98.9245 234.143 106.053 231.93 112.629C229.716 119.139 226.461 124.836 222.164 129.719C217.932 134.536 212.724 138.28 206.539 140.949C200.354 143.618 193.258 144.953 185.25 144.953C177.242 144.953 170.113 143.618 163.863 140.949C157.678 138.28 152.438 134.536 148.141 129.719C143.909 124.836 140.686 119.139 138.473 112.629C136.259 106.053 135.152 98.9245 135.152 91.2422ZM163.277 89.1914V91.2422C163.277 95.6693 163.668 99.8034 164.449 103.645C165.23 107.486 166.467 110.871 168.16 113.801C169.918 116.665 172.197 118.911 174.996 120.539C177.796 122.167 181.214 122.98 185.25 122.98C189.156 122.98 192.509 122.167 195.309 120.539C198.108 118.911 200.354 116.665 202.047 113.801C203.74 110.871 204.977 107.486 205.758 103.645C206.604 99.8034 207.027 95.6693 207.027 91.2422V89.1914C207.027 84.8945 206.604 80.8581 205.758 77.082C204.977 73.2409 203.707 69.8555 201.949 66.9258C200.257 63.931 198.01 61.5872 195.211 59.8945C192.411 58.2018 189.026 57.3555 185.055 57.3555C181.083 57.3555 177.698 58.2018 174.898 59.8945C172.164 61.5872 169.918 63.931 168.16 66.9258C166.467 69.8555 165.23 73.2409 164.449 77.082C163.668 80.8581 163.277 84.8945 163.277 89.1914ZM286.91 122.492L310.348 37.3359H339.742L304.098 143H286.324L286.91 122.492ZM270.797 37.3359L294.332 122.59L294.82 143H276.949L241.305 37.3359H270.797ZM384.078 0.8125L380.855 99.543H357.418L354.098 0.8125H384.078ZM353.316 130.109C353.316 125.943 354.749 122.492 357.613 119.758C360.543 116.958 364.384 115.559 369.137 115.559C373.954 115.559 377.796 116.958 380.66 119.758C383.525 122.492 384.957 125.943 384.957 130.109C384.957 134.146 383.525 137.564 380.66 140.363C377.796 143.163 373.954 144.562 369.137 144.562C364.384 144.562 360.543 143.163 357.613 140.363C354.749 137.564 353.316 134.146 353.316 130.109Z" fill="white"/>
<path d="M95.0156 58.7227H96.0156V57.7227H95.0156V58.7227ZM95.0156 81.5742V82.5742H96.0156V81.5742H95.0156ZM20.7969 81.5742H19.7969V82.5742H20.7969V81.5742ZM20.7969 58.7227V57.7227H19.7969V58.7227H20.7969ZM29.4883 0.8125H30.4883V-0.1875H29.4883V0.8125ZM29.4883 143V144H30.4883V143H29.4883ZM0.191406 143H-0.808594V144H0.191406V143ZM0.191406 0.8125V-0.1875H-0.808594V0.8125H0.191406ZM115.914 0.8125H116.914V-0.1875H115.914V0.8125ZM115.914 143V144H116.914V143H115.914ZM86.7148 143H85.7148V144H86.7148V143ZM86.7148 0.8125V-0.1875H85.7148V0.8125H86.7148ZM94.0156 58.7227V81.5742H96.0156V58.7227H94.0156ZM95.0156 80.5742H20.7969V82.5742H95.0156V80.5742ZM21.7969 81.5742V58.7227H19.7969V81.5742H21.7969ZM20.7969 59.7227H95.0156V57.7227H20.7969V59.7227ZM28.4883 0.8125V143H30.4883V0.8125H28.4883ZM29.4883 142H0.191406V144H29.4883V142ZM1.19141 143V0.8125H-0.808594V143H1.19141ZM0.191406 1.8125H29.4883V-0.1875H0.191406V1.8125ZM114.914 0.8125V143H116.914V0.8125H114.914ZM115.914 142H86.7148V144H115.914V142ZM87.7148 143V0.8125H85.7148V143H87.7148ZM86.7148 1.8125H115.914V-0.1875H86.7148V1.8125ZM138.473 67.8047L139.419 68.1266L139.42 68.1237L138.473 67.8047ZM148.141 50.7148L147.389 50.0549L148.141 50.7148ZM163.766 39.4844L164.162 40.4026L164.17 40.399L163.766 39.4844ZM206.441 39.4844L206.041 40.4006L206.049 40.404L206.441 39.4844ZM222.164 50.7148L221.413 51.3748L221.418 51.3805L222.164 50.7148ZM231.93 67.8047L230.982 68.1237L230.983 68.1266L231.93 67.8047ZM231.93 112.629L232.876 112.951L232.877 112.948L231.93 112.629ZM222.164 129.719L221.413 129.058L221.413 129.059L222.164 129.719ZM163.863 140.949L163.467 141.867L163.471 141.869L163.863 140.949ZM148.141 129.719L147.385 130.374L147.39 130.379L147.394 130.384L148.141 129.719ZM138.473 112.629L137.525 112.948L137.526 112.951L138.473 112.629ZM168.16 113.801L167.294 114.301L167.301 114.313L167.308 114.324L168.16 113.801ZM195.309 120.539L195.811 121.404L195.309 120.539ZM202.047 113.801L202.908 114.31L202.913 114.301L202.047 113.801ZM205.758 103.645L204.781 103.429L204.779 103.437L204.778 103.445L205.758 103.645ZM205.758 77.082L204.778 77.2813L204.78 77.2911L204.782 77.3007L205.758 77.082ZM201.949 66.9258L201.079 67.4178L201.085 67.4291L201.092 67.4403L201.949 66.9258ZM195.211 59.8945L195.728 59.0388L195.211 59.8945ZM174.898 59.8945L174.381 59.0388L174.372 59.0443L174.898 59.8945ZM168.16 66.9258L167.298 66.4196L167.294 66.4255L168.16 66.9258ZM164.449 77.082L165.428 77.2846L165.429 77.2813L164.449 77.082ZM136.152 91.2422V89.1914H134.152V91.2422H136.152ZM136.152 89.1914C136.152 81.5398 137.245 74.5211 139.419 68.1266L137.526 67.4828C135.273 74.1091 134.152 81.3482 134.152 89.1914H136.152ZM139.42 68.1237C141.595 61.6633 144.755 56.0851 148.892 51.3748L147.389 50.0549C143.063 54.98 139.777 60.795 137.525 67.4856L139.42 68.1237ZM148.892 51.3748C153.021 46.674 158.106 43.0161 164.162 40.4025L163.369 38.5662C157.055 41.2912 151.724 45.1203 147.389 50.0549L148.892 51.3748ZM164.17 40.399C170.206 37.7303 177.161 36.3828 185.055 36.3828V34.3828C176.933 34.3828 169.695 35.7697 163.361 38.5698L164.17 40.399ZM185.055 36.3828C192.948 36.3828 199.937 37.7302 206.041 40.4005L206.842 38.5682C200.446 35.7698 193.177 34.3828 185.055 34.3828V36.3828ZM206.049 40.404C212.17 43.0182 217.285 46.676 221.413 51.3748L222.915 50.0549C218.579 45.1182 213.213 41.2891 206.834 38.5647L206.049 40.404ZM221.418 51.3805C225.618 56.0901 228.808 61.6665 230.982 68.1237L232.877 67.4856C230.624 60.7919 227.304 54.975 222.91 50.0492L221.418 51.3805ZM230.983 68.1266C233.157 74.5211 234.25 81.5398 234.25 89.1914H236.25C236.25 81.3482 235.129 74.1091 232.876 67.4828L230.983 68.1266ZM234.25 89.1914V91.2422H236.25V89.1914H234.25ZM234.25 91.2422C234.25 98.8276 233.157 105.848 230.982 112.31L232.877 112.948C235.129 106.259 236.25 99.0214 236.25 91.2422H234.25ZM230.983 112.307C228.809 118.7 225.618 124.28 221.413 129.058L222.915 130.379C227.304 125.392 230.623 119.579 232.876 112.951L230.983 112.307ZM221.413 129.059C217.284 133.76 212.199 137.417 206.143 140.031L206.935 141.867C213.249 139.142 218.581 135.313 222.915 130.379L221.413 129.059ZM206.143 140.031C200.104 142.637 193.147 143.953 185.25 143.953V145.953C193.369 145.953 200.604 144.6 206.935 141.867L206.143 140.031ZM185.25 143.953C177.353 143.953 170.362 142.637 164.256 140.03L163.471 141.869C169.865 144.6 177.131 145.953 185.25 145.953V143.953ZM164.26 140.031C158.202 137.417 153.083 133.757 148.887 129.053L147.394 130.384C151.792 135.315 157.154 139.143 163.467 141.867L164.26 140.031ZM148.896 129.064C144.754 124.285 141.594 118.703 139.419 112.307L137.526 112.951C139.778 119.576 143.063 125.387 147.385 130.374L148.896 129.064ZM139.42 112.31C137.245 105.848 136.152 98.8276 136.152 91.2422H134.152C134.152 99.0214 135.273 106.259 137.525 112.948L139.42 112.31ZM162.277 89.1914V91.2422H164.277V89.1914H162.277ZM162.277 91.2422C162.277 95.7278 162.673 99.9293 163.469 103.844L165.429 103.445C164.663 99.6775 164.277 95.6108 164.277 91.2422H162.277ZM163.469 103.844C164.269 107.774 165.54 111.264 167.294 114.301L169.026 113.301C167.395 110.478 166.192 107.197 165.429 103.445L163.469 103.844ZM167.308 114.324C169.149 117.324 171.545 119.69 174.493 121.404L175.499 119.675C172.848 118.133 170.687 116.007 169.012 113.278L167.308 114.324ZM174.493 121.404C177.479 123.139 181.08 123.98 185.25 123.98V121.98C181.347 121.98 178.112 121.194 175.499 119.675L174.493 121.404ZM185.25 123.98C189.296 123.98 192.83 123.137 195.811 121.404L194.806 119.675C192.188 121.197 189.016 121.98 185.25 121.98V123.98ZM195.811 121.404C198.763 119.688 201.131 117.317 202.908 114.31L201.186 113.292C199.578 116.014 197.453 118.135 194.806 119.675L195.811 121.404ZM202.913 114.301C204.667 111.264 205.938 107.774 206.738 103.844L204.778 103.445C204.015 107.197 202.812 110.478 201.181 113.301L202.913 114.301ZM206.734 103.86C207.598 99.9397 208.027 95.7328 208.027 91.2422H206.027C206.027 95.6058 205.61 99.667 204.781 103.429L206.734 103.86ZM208.027 91.2422V89.1914H206.027V91.2422H208.027ZM208.027 89.1914C208.027 84.8289 207.598 80.7185 206.734 76.8633L204.782 77.3007C205.611 80.9976 206.027 84.9601 206.027 89.1914H208.027ZM206.738 76.8827C205.937 72.9465 204.631 69.4515 202.807 66.4113L201.092 67.4403C202.783 70.2594 204.016 73.5353 204.778 77.2813L206.738 76.8827ZM202.82 66.4337C201.047 63.2974 198.682 60.825 195.728 59.0388L194.694 60.7503C197.338 62.3495 199.466 64.5646 201.079 67.4178L202.82 66.4337ZM195.728 59.0388C192.742 57.2334 189.169 56.3555 185.055 56.3555V58.3555C188.883 58.3555 192.08 59.1703 194.694 60.7503L195.728 59.0388ZM185.055 56.3555C180.94 56.3555 177.367 57.2334 174.381 59.0388L175.416 60.7503C178.029 59.1703 181.227 58.3555 185.055 58.3555V56.3555ZM174.372 59.0443C171.488 60.8294 169.131 63.2959 167.298 66.4196L169.023 67.432C170.705 64.566 172.84 62.3451 175.425 60.7448L174.372 59.0443ZM167.294 66.4255C165.54 69.4622 164.269 72.9522 163.469 76.8827L165.429 77.2813C166.192 73.5296 167.395 70.2488 169.026 67.4261L167.294 66.4255ZM163.47 76.8794C162.673 80.7292 162.277 84.8341 162.277 89.1914H164.277C164.277 84.955 164.662 80.987 165.428 77.2846L163.47 76.8794ZM286.91 122.492L285.946 122.227L285.914 122.343L285.911 122.464L286.91 122.492ZM310.348 37.3359V36.3359H309.586L309.384 37.0706L310.348 37.3359ZM339.742 37.3359L340.69 37.6556L341.135 36.3359H339.742V37.3359ZM304.098 143V144H304.816L305.045 143.32L304.098 143ZM286.324 143L285.325 142.971L285.295 144H286.324V143ZM270.797 37.3359L271.761 37.0698L271.558 36.3359H270.797V37.3359ZM294.332 122.59L295.332 122.566L295.329 122.443L295.296 122.324L294.332 122.59ZM294.82 143V144H295.845L295.82 142.976L294.82 143ZM276.949 143L276.002 143.32L276.231 144H276.949V143ZM241.305 37.3359V36.3359H239.912L240.357 37.6556L241.305 37.3359ZM287.874 122.758L311.312 37.6013L309.384 37.0706L285.946 122.227L287.874 122.758ZM310.348 38.3359H339.742V36.3359H310.348V38.3359ZM338.795 37.0163L303.15 142.68L305.045 143.32L340.69 37.6556L338.795 37.0163ZM304.098 142H286.324V144H304.098V142ZM287.324 143.029L287.91 122.521L285.911 122.464L285.325 142.971L287.324 143.029ZM269.833 37.602L293.368 122.856L295.296 122.324L271.761 37.0698L269.833 37.602ZM293.332 122.614L293.821 143.024L295.82 142.976L295.332 122.566L293.332 122.614ZM294.82 142H276.949V144H294.82V142ZM277.897 142.68L242.252 37.0163L240.357 37.6556L276.002 143.32L277.897 142.68ZM241.305 38.3359H270.797V36.3359H241.305V38.3359ZM384.078 0.8125L385.078 0.845124L385.111 -0.1875H384.078V0.8125ZM380.855 99.543V100.543H381.823L381.855 99.5756L380.855 99.543ZM357.418 99.543L356.419 99.5766L356.451 100.543H357.418V99.543ZM354.098 0.8125V-0.1875H353.063L353.098 0.846111L354.098 0.8125ZM357.613 119.758L358.304 120.481L358.304 120.481L357.613 119.758ZM380.66 119.758L379.961 120.473L379.97 120.481L380.66 119.758ZM380.66 140.363L379.961 139.648L380.66 140.363ZM357.613 140.363L356.914 141.079L356.922 141.086L357.613 140.363ZM383.079 0.779876L379.856 99.5103L381.855 99.5756L385.078 0.845124L383.079 0.779876ZM380.855 98.543H357.418V100.543H380.855V98.543ZM358.417 99.5094L355.097 0.778889L353.098 0.846111L356.419 99.5766L358.417 99.5094ZM354.098 1.8125H384.078V-0.1875H354.098V1.8125ZM354.316 130.109C354.316 126.2 355.648 123.016 358.304 120.481L356.923 119.034C353.849 121.968 352.316 125.685 352.316 130.109H354.316ZM358.304 120.481C361.016 117.889 364.594 116.559 369.137 116.559V114.559C364.174 114.559 360.07 116.027 356.922 119.035L358.304 120.481ZM369.137 116.559C373.75 116.559 377.32 117.892 379.961 120.473L381.359 119.043C378.271 116.025 374.159 114.559 369.137 114.559V116.559ZM379.97 120.481C382.625 123.016 383.957 126.2 383.957 130.109H385.957C385.957 125.685 384.424 121.968 381.351 119.034L379.97 120.481ZM383.957 130.109C383.957 133.879 382.632 137.038 379.961 139.648L381.359 141.078C384.418 138.089 385.957 134.413 385.957 130.109H383.957ZM379.961 139.648C377.32 142.229 373.75 143.562 369.137 143.562V145.562C374.159 145.562 378.271 144.097 381.359 141.078L379.961 139.648ZM369.137 143.562C364.594 143.562 361.016 142.232 358.304 139.64L356.922 141.086C360.07 144.094 364.174 145.562 369.137 145.562V143.562ZM358.312 139.648C355.642 137.038 354.316 133.879 354.316 130.109H352.316C352.316 134.413 353.856 138.089 356.914 141.078L358.312 139.648Z" fill="black" mask="url(#path-1-outside-1_162_944)"/>
</svg>

