<svg width="50" height="50" viewBox="0 0 50 50" fill="none" xmlns="http://www.w3.org/2000/svg">
<circle cx="25" cy="25" r="25" fill="#162A41"/>
<path d="M25.5 13C20.253 13 16 17.0878 16 22.1297C16 25.1226 19.3472 30.8046 22.0677 34.9285C23.8899 37.6905 27.1101 37.6905 28.9323 34.9285C31.6528 30.804 35 25.1226 35 22.1297C35 17.0872 30.747 13 25.5 13ZM25.5 26.423C22.891 26.423 20.7756 24.3901 20.7756 21.8827C20.7756 19.3754 22.891 17.3425 25.5 17.3425C28.109 17.3425 30.2244 19.3754 30.2244 21.8827C30.2244 24.3901 28.109 26.423 25.5 26.423Z" fill="white"/>
</svg>
