<svg width="16" height="18" viewBox="0 0 16 18" fill="none" xmlns="http://www.w3.org/2000/svg">
<path d="M3.58143 17.3894H0.264286V6.41362H3.58143V17.3894ZM1.92107 4.91642C0.860357 4.91642 0 4.0137 0 2.92383C7.59214e-09 2.40033 0.202398 1.89826 0.562669 1.52809C0.92294 1.15791 1.41157 0.949951 1.92107 0.949951C2.43057 0.949951 2.9192 1.15791 3.27947 1.52809C3.63974 1.89826 3.84214 2.40033 3.84214 2.92383C3.84214 4.0137 2.98143 4.91642 1.92107 4.91642ZM15.9964 17.3894H12.6864V12.0465C12.6864 10.7731 12.6614 9.14014 10.9618 9.14014C9.23714 9.14014 8.97286 10.5236 8.97286 11.9547V17.3894H5.65929V6.41362H8.84071V7.91082H8.88714C9.33 7.04846 10.4118 6.1384 12.0257 6.1384C15.3829 6.1384 16 8.40989 16 11.3602V17.3894H15.9964Z" fill="#2A2C30"/>
</svg>
