<svg width="21" height="18" viewBox="0 0 21 18" fill="none" xmlns="http://www.w3.org/2000/svg">
<path d="M20.6021 6.3784C20.7621 6.24568 21 6.36983 21 6.57961V15.3345C21 16.469 20.1182 17.3894 19.0312 17.3894H1.96875C0.881836 17.3894 0 16.469 0 15.3345V6.58389C0 6.36983 0.233789 6.24996 0.397852 6.38268C1.3166 7.12759 2.53477 8.07371 6.71836 11.246C7.58379 11.9053 9.04395 13.2924 10.5 13.2838C11.9643 13.2967 13.4531 11.8796 14.2857 11.246C18.4693 8.07371 19.6834 7.12331 20.6021 6.3784ZM10.5 11.9096C11.4516 11.9267 12.8215 10.6595 13.5105 10.1372C18.9533 6.0145 19.3676 5.65489 20.6227 4.62742C20.8605 4.43477 21 4.1351 21 3.81829V3.00488C21 1.87039 20.1182 0.949951 19.0312 0.949951H1.96875C0.881836 0.949951 0 1.87039 0 3.00488V3.81829C0 4.1351 0.139453 4.43049 0.377344 4.62742C1.63242 5.65061 2.04668 6.0145 7.48945 10.1372C8.17852 10.6595 9.54844 11.9267 10.5 11.9096Z" fill="#2A2C30"/>
</svg>
